<svg xmlns="http://www.w3.org/2000/svg" width="954" height="486" viewBox="0 0 954 486">
  <path d="M47.16015625 37.8359375H105.36328125L127.82421875 124.9453125L150.1875 37.8359375H208.1953125V181.0H172.0625V71.8203125L144.03515625 181.0H111.3203125L83.390625 71.8203125V181.0H47.16015625ZM228.8984375 129.4375Q228.8984375 105.70703125 244.9140625 90.326171875Q260.9296875 74.9453125 288.17578125 74.9453125Q319.328125 74.9453125 335.24609375 93.01171875Q348.0390625 107.5625 348.0390625 128.8515625Q348.0390625 152.77734375 332.169921875 168.060546875Q316.30078125 183.34375 288.2734375 183.34375Q263.2734375 183.34375 247.84375 170.6484375Q228.8984375 154.92578125 228.8984375 129.4375ZM268.7421875 129.33984375Q268.7421875 143.20703125 274.357421875 149.84765625Q279.97265625 156.48828125 288.46875 156.48828125Q297.0625 156.48828125 302.580078125 149.9453125Q308.09765625 143.40234375 308.09765625 128.94921875Q308.09765625 115.47265625 302.53125 108.880859375Q296.96484375 102.2890625 288.76171875 102.2890625Q280.0703125 102.2890625 274.40625 108.978515625Q268.7421875 115.66796875 268.7421875 129.33984375ZM367.1796875 77.2890625H404.19140625V94.18359375Q412.4921875 83.83203125 420.98828125 79.388671875Q429.484375 74.9453125 441.69140625 74.9453125Q458.1953125 74.9453125 467.521484375 84.759765625Q476.84765625 94.57421875 476.84765625 115.08203125V181.0H436.90625V123.96875Q436.90625 114.203125 433.29296875 110.150390625Q429.6796875 106.09765625 423.13671875 106.09765625Q415.91015625 106.09765625 411.41796875 111.56640625Q406.92578125 117.03515625 406.92578125 131.1953125V181.0H367.1796875ZM493.546875 152.2890625 533.0 148.578125Q535.44140625 155.609375 539.8359375 158.63671875Q544.23046875 161.6640625 551.5546875 161.6640625Q559.5625 161.6640625 563.95703125 158.24609375Q567.375 155.70703125 567.375 151.8984375Q567.375 147.6015625 562.8828125 145.2578125Q559.66015625 143.59765625 545.79296875 141.15625Q525.08984375 137.54296875 517.033203125 134.466796875Q508.9765625 131.390625 503.458984375 124.06640625Q497.94140625 116.7421875 497.94140625 107.3671875Q497.94140625 97.11328125 503.8984375 89.69140625Q509.85546875 82.26953125 520.3046875 78.607421875Q530.75390625 74.9453125 548.33203125 74.9453125Q566.88671875 74.9453125 575.724609375 77.77734375Q584.5625 80.609375 590.470703125 86.56640625Q596.37890625 92.5234375 600.28515625 102.6796875L562.58984375 106.390625Q561.125 101.41015625 557.70703125 99.06640625Q553.01953125 95.94140625 546.37890625 95.94140625Q539.640625 95.94140625 536.564453125 98.333984375Q533.48828125 100.7265625 533.48828125 104.14453125Q533.48828125 107.953125 537.39453125 109.90625Q541.30078125 111.859375 554.38671875 113.421875Q574.2109375 115.66796875 583.87890625 119.671875Q593.546875 123.67578125 598.673828125 131.09765625Q603.80078125 138.51953125 603.80078125 147.40625Q603.80078125 156.390625 598.380859375 164.88671875Q592.9609375 173.3828125 581.291015625 178.412109375Q569.62109375 183.44140625 549.50390625 183.44140625Q521.0859375 183.44140625 509.025390625 175.3359375Q496.96484375 167.23046875 493.546875 152.2890625ZM670.6953125 37.8359375V77.2890625H692.5703125V106.29296875H670.6953125V143.109375Q670.6953125 149.75 671.96484375 151.8984375Q673.91796875 155.21875 678.80078125 155.21875Q683.1953125 155.21875 691.10546875 152.6796875L694.03515625 180.12109375Q679.2890625 183.34375 666.49609375 183.34375Q651.65234375 183.34375 644.62109375 179.53515625Q637.58984375 175.7265625 634.220703125 167.962890625Q630.8515625 160.19921875 630.8515625 142.81640625V106.29296875H616.203125V77.2890625H630.8515625V58.24609375ZM826.65234375 139.0078125H746.96484375Q748.0390625 148.578125 752.140625 153.265625Q757.90234375 160.00390625 767.1796875 160.00390625Q773.0390625 160.00390625 778.3125 157.07421875Q781.53515625 155.21875 785.24609375 150.53125L824.40625 154.14453125Q815.421875 169.76953125 802.7265625 176.556640625Q790.03125 183.34375 766.30078125 183.34375Q745.6953125 183.34375 733.87890625 177.533203125Q722.0625 171.72265625 714.298828125 159.076171875Q706.53515625 146.4296875 706.53515625 129.33984375Q706.53515625 105.0234375 722.111328125 89.984375Q737.6875 74.9453125 765.12890625 74.9453125Q787.39453125 74.9453125 800.28515625 81.68359375Q813.17578125 88.421875 819.9140625 101.21484375Q826.65234375 114.0078125 826.65234375 134.515625ZM786.22265625 119.96484375Q785.05078125 108.44140625 780.021484375 103.4609375Q774.9921875 98.48046875 766.7890625 98.48046875Q757.31640625 98.48046875 751.65234375 106.0Q748.0390625 110.6875 747.0625 119.96484375ZM845.3046875 77.2890625H882.51171875V94.28125Q887.8828125 83.24609375 893.595703125 79.095703125Q899.30859375 74.9453125 907.70703125 74.9453125Q916.49609375 74.9453125 926.9453125 80.4140625L914.640625 108.734375Q907.609375 105.8046875 903.5078125 105.8046875Q895.6953125 105.8046875 891.3984375 112.25Q885.24609375 121.33203125 885.24609375 146.234375V181.0H845.3046875ZM202.62890625 261.8359375H260.83203125L283.29296875 348.9453125L305.65625 261.8359375H363.6640625V405.0H327.53125V295.8203125L299.50390625 405.0H266.7890625L238.859375 295.8203125V405.0H202.62890625ZM504.38671875 363.0078125H424.69921875Q425.7734375 372.578125 429.875 377.265625Q435.63671875 384.00390625 444.9140625 384.00390625Q450.7734375 384.00390625 456.046875 381.07421875Q459.26953125 379.21875 462.98046875 374.53125L502.140625 378.14453125Q493.15625 393.76953125 480.4609375 400.556640625Q467.765625 407.34375 444.03515625 407.34375Q423.4296875 407.34375 411.61328125 401.533203125Q399.796875 395.72265625 392.033203125 383.076171875Q384.26953125 370.4296875 384.26953125 353.33984375Q384.26953125 329.0234375 399.845703125 313.984375Q415.421875 298.9453125 442.86328125 298.9453125Q465.12890625 298.9453125 478.01953125 305.68359375Q490.91015625 312.421875 497.6484375 325.21484375Q504.38671875 338.0078125 504.38671875 358.515625ZM463.95703125 343.96484375Q462.78515625 332.44140625 457.755859375 327.4609375Q452.7265625 322.48046875 444.5234375 322.48046875Q435.05078125 322.48046875 429.38671875 330.0Q425.7734375 334.6875 424.796875 343.96484375ZM515.6171875 376.2890625 555.0703125 372.578125Q557.51171875 379.609375 561.90625 382.63671875Q566.30078125 385.6640625 573.625 385.6640625Q581.6328125 385.6640625 586.02734375 382.24609375Q589.4453125 379.70703125 589.4453125 375.8984375Q589.4453125 371.6015625 584.953125 369.2578125Q581.73046875 367.59765625 567.86328125 365.15625Q547.16015625 361.54296875 539.103515625 358.466796875Q531.046875 355.390625 525.529296875 348.06640625Q520.01171875 340.7421875 520.01171875 331.3671875Q520.01171875 321.11328125 525.96875 313.69140625Q531.92578125 306.26953125 542.375 302.607421875Q552.82421875 298.9453125 570.40234375 298.9453125Q588.95703125 298.9453125 597.794921875 301.77734375Q606.6328125 304.609375 612.541015625 310.56640625Q618.44921875 316.5234375 622.35546875 326.6796875L584.66015625 330.390625Q583.1953125 325.41015625 579.77734375 323.06640625Q575.08984375 319.94140625 568.44921875 319.94140625Q561.7109375 319.94140625 558.634765625 322.333984375Q555.55859375 324.7265625 555.55859375 328.14453125Q555.55859375 331.953125 559.46484375 333.90625Q563.37109375 335.859375 576.45703125 337.421875Q596.28125 339.66796875 605.94921875 343.671875Q615.6171875 347.67578125 620.744140625 355.09765625Q625.87109375 362.51953125 625.87109375 371.40625Q625.87109375 380.390625 620.451171875 388.88671875Q615.03125 397.3828125 603.361328125 402.412109375Q591.69140625 407.44140625 571.57421875 407.44140625Q543.15625 407.44140625 531.095703125 399.3359375Q519.03515625 391.23046875 515.6171875 376.2890625ZM644.81640625 261.8359375H684.5625V314.5703125Q692.66796875 306.171875 700.67578125 302.55859375Q708.68359375 298.9453125 719.62109375 298.9453125Q735.83203125 298.9453125 745.158203125 308.80859375Q754.484375 318.671875 754.484375 339.08203125V405.0H714.54296875V347.96875Q714.54296875 338.203125 710.9296875 334.150390625Q707.31640625 330.09765625 700.7734375 330.09765625Q693.546875 330.09765625 689.0546875 335.56640625Q684.5625 341.03515625 684.5625 355.1953125V405.0H644.81640625Z" fill="none" stroke="#283FA0" stroke-width="22" stroke-linejoin="round"/>
  <path d="M47.16015625 37.8359375H105.36328125L127.82421875 124.9453125L150.1875 37.8359375H208.1953125V181.0H172.0625V71.8203125L144.03515625 181.0H111.3203125L83.390625 71.8203125V181.0H47.16015625ZM228.8984375 129.4375Q228.8984375 105.70703125 244.9140625 90.326171875Q260.9296875 74.9453125 288.17578125 74.9453125Q319.328125 74.9453125 335.24609375 93.01171875Q348.0390625 107.5625 348.0390625 128.8515625Q348.0390625 152.77734375 332.169921875 168.060546875Q316.30078125 183.34375 288.2734375 183.34375Q263.2734375 183.34375 247.84375 170.6484375Q228.8984375 154.92578125 228.8984375 129.4375ZM268.7421875 129.33984375Q268.7421875 143.20703125 274.357421875 149.84765625Q279.97265625 156.48828125 288.46875 156.48828125Q297.0625 156.48828125 302.580078125 149.9453125Q308.09765625 143.40234375 308.09765625 128.94921875Q308.09765625 115.47265625 302.53125 108.880859375Q296.96484375 102.2890625 288.76171875 102.2890625Q280.0703125 102.2890625 274.40625 108.978515625Q268.7421875 115.66796875 268.7421875 129.33984375ZM367.1796875 77.2890625H404.19140625V94.18359375Q412.4921875 83.83203125 420.98828125 79.388671875Q429.484375 74.9453125 441.69140625 74.9453125Q458.1953125 74.9453125 467.521484375 84.759765625Q476.84765625 94.57421875 476.84765625 115.08203125V181.0H436.90625V123.96875Q436.90625 114.203125 433.29296875 110.150390625Q429.6796875 106.09765625 423.13671875 106.09765625Q415.91015625 106.09765625 411.41796875 111.56640625Q406.92578125 117.03515625 406.92578125 131.1953125V181.0H367.1796875ZM493.546875 152.2890625 533.0 148.578125Q535.44140625 155.609375 539.8359375 158.63671875Q544.23046875 161.6640625 551.5546875 161.6640625Q559.5625 161.6640625 563.95703125 158.24609375Q567.375 155.70703125 567.375 151.8984375Q567.375 147.6015625 562.8828125 145.2578125Q559.66015625 143.59765625 545.79296875 141.15625Q525.08984375 137.54296875 517.033203125 134.466796875Q508.9765625 131.390625 503.458984375 124.06640625Q497.94140625 116.7421875 497.94140625 107.3671875Q497.94140625 97.11328125 503.8984375 89.69140625Q509.85546875 82.26953125 520.3046875 78.607421875Q530.75390625 74.9453125 548.33203125 74.9453125Q566.88671875 74.9453125 575.724609375 77.77734375Q584.5625 80.609375 590.470703125 86.56640625Q596.37890625 92.5234375 600.28515625 102.6796875L562.58984375 106.390625Q561.125 101.41015625 557.70703125 99.06640625Q553.01953125 95.94140625 546.37890625 95.94140625Q539.640625 95.94140625 536.564453125 98.333984375Q533.48828125 100.7265625 533.48828125 104.14453125Q533.48828125 107.953125 537.39453125 109.90625Q541.30078125 111.859375 554.38671875 113.421875Q574.2109375 115.66796875 583.87890625 119.671875Q593.546875 123.67578125 598.673828125 131.09765625Q603.80078125 138.51953125 603.80078125 147.40625Q603.80078125 156.390625 598.380859375 164.88671875Q592.9609375 173.3828125 581.291015625 178.412109375Q569.62109375 183.44140625 549.50390625 183.44140625Q521.0859375 183.44140625 509.025390625 175.3359375Q496.96484375 167.23046875 493.546875 152.2890625ZM670.6953125 37.8359375V77.2890625H692.5703125V106.29296875H670.6953125V143.109375Q670.6953125 149.75 671.96484375 151.8984375Q673.91796875 155.21875 678.80078125 155.21875Q683.1953125 155.21875 691.10546875 152.6796875L694.03515625 180.12109375Q679.2890625 183.34375 666.49609375 183.34375Q651.65234375 183.34375 644.62109375 179.53515625Q637.58984375 175.7265625 634.220703125 167.962890625Q630.8515625 160.19921875 630.8515625 142.81640625V106.29296875H616.203125V77.2890625H630.8515625V58.24609375ZM826.65234375 139.0078125H746.96484375Q748.0390625 148.578125 752.140625 153.265625Q757.90234375 160.00390625 767.1796875 160.00390625Q773.0390625 160.00390625 778.3125 157.07421875Q781.53515625 155.21875 785.24609375 150.53125L824.40625 154.14453125Q815.421875 169.76953125 802.7265625 176.556640625Q790.03125 183.34375 766.30078125 183.34375Q745.6953125 183.34375 733.87890625 177.533203125Q722.0625 171.72265625 714.298828125 159.076171875Q706.53515625 146.4296875 706.53515625 129.33984375Q706.53515625 105.0234375 722.111328125 89.984375Q737.6875 74.9453125 765.12890625 74.9453125Q787.39453125 74.9453125 800.28515625 81.68359375Q813.17578125 88.421875 819.9140625 101.21484375Q826.65234375 114.0078125 826.65234375 134.515625ZM786.22265625 119.96484375Q785.05078125 108.44140625 780.021484375 103.4609375Q774.9921875 98.48046875 766.7890625 98.48046875Q757.31640625 98.48046875 751.65234375 106.0Q748.0390625 110.6875 747.0625 119.96484375ZM845.3046875 77.2890625H882.51171875V94.28125Q887.8828125 83.24609375 893.595703125 79.095703125Q899.30859375 74.9453125 907.70703125 74.9453125Q916.49609375 74.9453125 926.9453125 80.4140625L914.640625 108.734375Q907.609375 105.8046875 903.5078125 105.8046875Q895.6953125 105.8046875 891.3984375 112.25Q885.24609375 121.33203125 885.24609375 146.234375V181.0H845.3046875ZM202.62890625 261.8359375H260.83203125L283.29296875 348.9453125L305.65625 261.8359375H363.6640625V405.0H327.53125V295.8203125L299.50390625 405.0H266.7890625L238.859375 295.8203125V405.0H202.62890625ZM504.38671875 363.0078125H424.69921875Q425.7734375 372.578125 429.875 377.265625Q435.63671875 384.00390625 444.9140625 384.00390625Q450.7734375 384.00390625 456.046875 381.07421875Q459.26953125 379.21875 462.98046875 374.53125L502.140625 378.14453125Q493.15625 393.76953125 480.4609375 400.556640625Q467.765625 407.34375 444.03515625 407.34375Q423.4296875 407.34375 411.61328125 401.533203125Q399.796875 395.72265625 392.033203125 383.076171875Q384.26953125 370.4296875 384.26953125 353.33984375Q384.26953125 329.0234375 399.845703125 313.984375Q415.421875 298.9453125 442.86328125 298.9453125Q465.12890625 298.9453125 478.01953125 305.68359375Q490.91015625 312.421875 497.6484375 325.21484375Q504.38671875 338.0078125 504.38671875 358.515625ZM463.95703125 343.96484375Q462.78515625 332.44140625 457.755859375 327.4609375Q452.7265625 322.48046875 444.5234375 322.48046875Q435.05078125 322.48046875 429.38671875 330.0Q425.7734375 334.6875 424.796875 343.96484375ZM515.6171875 376.2890625 555.0703125 372.578125Q557.51171875 379.609375 561.90625 382.63671875Q566.30078125 385.6640625 573.625 385.6640625Q581.6328125 385.6640625 586.02734375 382.24609375Q589.4453125 379.70703125 589.4453125 375.8984375Q589.4453125 371.6015625 584.953125 369.2578125Q581.73046875 367.59765625 567.86328125 365.15625Q547.16015625 361.54296875 539.103515625 358.466796875Q531.046875 355.390625 525.529296875 348.06640625Q520.01171875 340.7421875 520.01171875 331.3671875Q520.01171875 321.11328125 525.96875 313.69140625Q531.92578125 306.26953125 542.375 302.607421875Q552.82421875 298.9453125 570.40234375 298.9453125Q588.95703125 298.9453125 597.794921875 301.77734375Q606.6328125 304.609375 612.541015625 310.56640625Q618.44921875 316.5234375 622.35546875 326.6796875L584.66015625 330.390625Q583.1953125 325.41015625 579.77734375 323.06640625Q575.08984375 319.94140625 568.44921875 319.94140625Q561.7109375 319.94140625 558.634765625 322.333984375Q555.55859375 324.7265625 555.55859375 328.14453125Q555.55859375 331.953125 559.46484375 333.90625Q563.37109375 335.859375 576.45703125 337.421875Q596.28125 339.66796875 605.94921875 343.671875Q615.6171875 347.67578125 620.744140625 355.09765625Q625.87109375 362.51953125 625.87109375 371.40625Q625.87109375 380.390625 620.451171875 388.88671875Q615.03125 397.3828125 603.361328125 402.412109375Q591.69140625 407.44140625 571.57421875 407.44140625Q543.15625 407.44140625 531.095703125 399.3359375Q519.03515625 391.23046875 515.6171875 376.2890625ZM644.81640625 261.8359375H684.5625V314.5703125Q692.66796875 306.171875 700.67578125 302.55859375Q708.68359375 298.9453125 719.62109375 298.9453125Q735.83203125 298.9453125 745.158203125 308.80859375Q754.484375 318.671875 754.484375 339.08203125V405.0H714.54296875V347.96875Q714.54296875 338.203125 710.9296875 334.150390625Q707.31640625 330.09765625 700.7734375 330.09765625Q693.546875 330.09765625 689.0546875 335.56640625Q684.5625 341.03515625 684.5625 355.1953125V405.0H644.81640625Z" fill="#FFCB05"/>
</svg>
